<?xml version="1.0" standalone="no"?>
<!DOCTYPE svg PUBLIC "-//W3C//DTD SVG 20010904//EN"
 "http://www.w3.org/TR/2001/REC-SVG-20010904/DTD/svg10.dtd">
<svg version="1.0" xmlns="http://www.w3.org/2000/svg"
 width="50.000000pt" height="50.000000pt" viewBox="0 0 50.000000 50.000000"
 preserveAspectRatio="xMidYMid meet">

<g transform="translate(0.000000,50.000000) scale(0.100000,-0.100000)"
fill="#d90707" stroke="none">
<path d="M179 466 c-56 -20 -96 -53 -126 -104 -40 -67 -40 -157 0 -225 49 -83
144 -128 237 -112 50 8 134 63 138 90 3 17 -2 15 -30 -12 -136 -130 -358 -39
-358 147 0 185 223 277 358 148 24 -24 32 -28 32 -15 0 9 -16 28 -35 43 -67
51 -145 66 -216 40z"/>
<path d="M380 333 c0 -4 14 -22 32 -40 l32 -33 -112 0 c-68 0 -112 -4 -112
-10 0 -6 44 -10 112 -10 l112 0 -34 -35 c-18 -19 -30 -38 -26 -42 3 -4 28 14
54 40 l46 47 -44 45 c-42 42 -60 54 -60 38z"/>
</g>
</svg>
