<?xml version="1.0" standalone="no"?>
<!DOCTYPE svg PUBLIC "-//W3C//DTD SVG 20010904//EN"
 "http://www.w3.org/TR/2001/REC-SVG-20010904/DTD/svg10.dtd">
<svg version="1.0" xmlns="http://www.w3.org/2000/svg"
 width="50.000000pt" height="50.000000pt" viewBox="0 0 50.000000 50.000000"
 preserveAspectRatio="xMidYMid meet">

<g transform="translate(0.000000,50.000000) scale(0.100000,-0.100000)"
fill="#FFF" stroke="none">
<path d="M70 250 l0 -220 86 0 c54 0 83 4 79 10 -3 6 -37 10 -76 10 l-69 0 0
200 0 200 110 0 110 0 0 -50 0 -50 50 0 50 0 0 -79 c0 -44 5 -83 10 -86 6 -4
10 28 10 87 l0 94 -53 52 -53 52 -127 0 -127 0 0 -220z m295 150 l29 -30 -32
0 c-29 0 -32 3 -32 30 0 17 1 30 3 30 2 0 16 -13 32 -30z"/>
<path d="M305 166 c-16 -8 -43 -28 -60 -46 l-30 -32 43 -38 c72 -65 132 -65
204 0 l43 38 -29 31 c-54 57 -113 73 -171 47z m103 -20 c15 -8 36 -24 47 -36
l20 -22 -33 -29 c-56 -51 -107 -51 -164 0 -29 26 -31 30 -18 46 22 27 72 55
98 55 13 0 35 -6 50 -14z"/>
<path d="M320 130 c-11 -11 -20 -29 -20 -40 0 -11 9 -29 20 -40 11 -11 29 -20
40 -20 26 0 60 34 60 60 0 26 -34 60 -60 60 -11 0 -29 -9 -40 -20z m70 -15
c15 -18 10 -45 -12 -59 -35 -22 -74 27 -48 59 16 19 44 19 60 0z"/>
<path d="M344 99 c-10 -17 13 -36 27 -22 12 12 4 33 -11 33 -5 0 -12 -5 -16
-11z"/>
</g>
</svg>
