<?xml version="1.0" standalone="no"?>
<!DOCTYPE svg PUBLIC "-//W3C//DTD SVG 20010904//EN"
 "http://www.w3.org/TR/2001/REC-SVG-20010904/DTD/svg10.dtd">
<svg version="1.0" xmlns="http://www.w3.org/2000/svg"
 width="24.000000pt" height="24.000000pt" viewBox="0 0 24.000000 24.000000"
 preserveAspectRatio="xMidYMid meet">

<g transform="translate(0.000000,24.000000) scale(0.100000,-0.100000)"
fill="#FFF" stroke="none">
<path d="M132 147 c-12 -13 -19 -27 -15 -30 7 -8 53 31 53 45 0 15 -16 8 -38
-15z"/>
<path d="M168 123 c-46 -46 -47 -47 -68 -28 -31 28 -38 8 -7 -23 l27 -26 55
54 c52 51 65 70 47 70 -4 0 -28 -21 -54 -47z"/>
<path d="M10 102 c0 -14 39 -46 47 -39 3 4 -2 16 -12 27 -19 21 -35 26 -35 12z"/>
</g>
</svg>
