<?xml version="1.0" standalone="no"?>
<!DOCTYPE svg PUBLIC "-//W3C//DTD SVG 20010904//EN"
 "http://www.w3.org/TR/2001/REC-SVG-20010904/DTD/svg10.dtd">
<svg version="1.0" xmlns="http://www.w3.org/2000/svg"
 width="48.000000pt" height="48.000000pt" viewBox="0 0 48.000000 48.000000"
 preserveAspectRatio="xMidYMid meet">

<g transform="translate(0.000000,48.000000) scale(0.100000,-0.100000)"
fill="#fff" stroke="none">
<path d="M154 410 c-21 -16 -47 -30 -56 -30 -10 0 -18 -6 -18 -13 0 -46 42
-302 51 -313 16 -20 202 -20 218 0 9 11 51 267 51 313 0 7 -11 13 -24 13 -13
0 -35 9 -49 20 -19 15 -31 18 -49 11 -18 -7 -29 -4 -47 10 -30 24 -30 24 -77
-11z m202 -87 c-2 -10 -10 -61 -16 -113 -17 -140 -9 -130 -100 -130 -91 0 -83
-10 -100 130 -6 52 -14 103 -16 113 -5 15 5 17 116 17 111 0 121 -2 116 -17z"/>
</g>
</svg>
