<?xml version="1.0" encoding="utf-8"?>
<svg viewBox="147.671 159.313 213.235 213.236" xmlns="http://www.w3.org/2000/svg">
  <path fill="#6633ef" d=" M 211.23 219.71 A 0.49 0.49 0.0 0 0 211.95 219.29 Q 212.07 207.63 211.97 196.25 Q 211.90 189.07 218.06 185.61 Q 229.17 179.38 240.28 173.17 C 249.49 168.04 253.57 165.34 262.77 170.45 Q 291.47 186.41 320.18 202.29 Q 320.26 202.33 321.75 203.31 C 324.67 205.22 326.13 203.22 328.52 202.56 C 337.34 200.10 345.62 206.26 345.66 215.50 Q 345.81 252.23 345.75 288.96 C 345.73 300.87 346.32 308.23 336.02 313.73 Q 288.94 338.83 263.05 352.94 C 257.05 356.21 252.89 357.13 247.00 353.95 Q 210.27 334.12 173.27 314.75 C 164.49 310.15 162.03 305.22 162.07 295.25 Q 162.19 254.63 162.31 214.00 C 162.33 206.01 169.27 200.48 176.88 202.13 Q 181.21 203.06 185.66 205.57 Q 198.51 212.82 211.23 219.71 Z M 271.16 293.71 Q 272.93 293.88 274.86 294.91 Q 287.38 301.61 299.64 308.47 A 2.47 2.46 44.7 0 0 302.05 308.46 Q 311.24 303.22 320.69 297.83 C 324.01 295.94 324.67 292.20 324.68 288.50 Q 324.75 261.16 324.76 233.82 C 324.76 230.85 324.38 228.81 321.82 227.40 Q 288.56 209.02 255.81 190.65 Q 254.31 189.81 252.81 190.65 L 235.19 200.58 A 1.42 1.39 75.6 0 0 234.48 201.81 L 234.49 230.96 A 2.50 2.49 -75.7 0 0 235.78 233.15 L 252.96 242.56 A 2.88 2.86 44.8 0 0 255.71 242.56 L 296.50 220.24 A 0.59 0.58 -14.5 0 1 297.37 220.75 L 297.39 268.39 A 0.50 0.49 -75.8 0 1 296.66 268.83 L 275.24 257.35 A 3.39 3.37 -45.5 0 0 271.99 257.39 C 266.21 260.67 258.35 267.41 251.55 265.55 C 247.67 264.48 240.51 260.07 235.98 257.29 A 2.47 2.45 46.1 0 0 233.52 257.23 L 212.82 268.59 Q 212.06 269.00 212.06 268.14 L 212.12 245.23 Q 212.12 244.00 211.05 243.42 Q 199.54 237.08 188.19 230.75 Q 186.24 229.66 184.69 229.49 Q 183.47 229.36 183.46 230.59 Q 183.38 259.12 183.40 287.50 C 183.41 292.54 183.05 295.94 187.26 298.27 Q 196.70 303.51 206.67 308.77 A 1.96 1.95 44.0 0 0 208.55 308.74 Q 221.05 301.58 233.06 295.36 Q 234.94 294.39 237.30 293.69 A 0.84 0.84 0.0 0 1 238.38 294.49 L 238.36 323.02 Q 238.36 324.47 239.63 325.16 L 253.38 332.63 A 1.91 1.90 44.1 0 0 255.24 332.61 L 269.67 324.45 A 1.89 1.88 75.3 0 0 270.62 322.81 L 270.61 294.21 Q 270.61 293.66 271.16 293.71 Z" transform="matrix(1, 0, 0, 1, 7.105427357601002e-15, 0)"/>
</svg>